# xmcd
#
# Track frame offsets: 
#        150
#        42326
#        65076
#        92603
#        115276
#        135953
#        154353
#        175945
#        209742
#        227191
#
# Disc length: 3369 seconds
#
# Revision: 1
# Processed by: cddbd v1.5.2PL0 Copyright (c) Steve Scherf et al.
# Submitted via: ExactAudioCopy v0.99pb4
#
DISCID=8f0d270a
DTITLE=The Dave Brubeck Quartet - Take Five [CD06)
DYEAR=1957
DGENRE=Jazz
TTITLE0=Pilgrim's  Progress
TTITLE1=Ode To A Cowboy
TTITLE2=Summer Song
TTITLE3=Yonder For Two
TTITLE4=History Of A Boy Scout
TTITLE5=Plain Song
TTITLE6=Curtain Time
TTITLE7=Sounds Of The Loop
TTITLE8=Home At Last
TTITLE9=Two Sleepy Poeple
EXTD=
EXTT0=
EXTT1=
EXTT2=
EXTT3=
EXTT4=
EXTT5=
EXTT6=
EXTT7=
EXTT8=
EXTT9=
PLAYORDER=
